<?xml version="1.0" encoding="utf-8"?>
<!-- Generator: Adobe Illustrator 16.0.0, SVG Export Plug-In . SVG Version: 6.00 Build 0)  -->
<!DOCTYPE svg PUBLIC "-//W3C//DTD SVG 1.1//EN" "http://www.w3.org/Graphics/SVG/1.1/DTD/svg11.dtd">
<svg version="1.1" id="Layer_1" xmlns="http://www.w3.org/2000/svg" xmlns:xlink="http://www.w3.org/1999/xlink" x="0px" y="0px"
	 width="64px" height="64px" viewBox="0 0 64 64" enable-background="new 0 0 64 64" xml:space="preserve">
<g>
	<path fill="#030303" d="M41.957,37.644l-0.011-0.002v-0.023l-0.031,0.016l-10.996-2.353l-7.998,4.231l0.07,0.134l-0.08-0.017
		v13.022l10.775,2.543l8.28-4.558l-0.021-12.714L41.957,37.644z M33.144,54.42l-9.66-2.224V40.34l9.66,2.08V54.42z"/>
	<polygon fill="#030303" points="44.895,12.937 39.863,8.804 19.105,8.804 19.105,15.351 44.895,15.351 	"/>
	<path fill="#030303" d="M54.896,17.009h-7.309h-2.693H19.105h-1.352H9.102c-1.434,0-2.598,1.166-2.598,2.6v18.948
		c0,1.435,1.164,2.602,2.598,2.602l12.753,0v-1.17l-0.198-0.379h-0.613l0.002-7.464h22.5v7.461h-0.556l0.003,1.552l11.904,0
		c1.432,0,2.6-1.167,2.6-2.603V19.609C57.494,18.174,56.328,17.009,54.896,17.009z M22.561,23.171H11.473v-1.475h11.088V23.171z
		 M50.77,24.96c-1.391,0-2.523-1.133-2.523-2.526s1.133-2.525,2.523-2.525c1.395,0,2.527,1.132,2.527,2.525
		S52.164,24.96,50.77,24.96z"/>
</g>
</svg>
