<?xml version="1.0" encoding="utf-8"?>
<!-- Generator: Adobe Illustrator 16.0.4, SVG Export Plug-In . SVG Version: 6.00 Build 0)  -->
<!DOCTYPE svg PUBLIC "-//W3C//DTD SVG 1.1//EN" "http://www.w3.org/Graphics/SVG/1.1/DTD/svg11.dtd">
<svg version="1.1" id="Layer_1" xmlns="http://www.w3.org/2000/svg" xmlns:xlink="http://www.w3.org/1999/xlink" x="0px" y="0px"
	 width="26px" height="26px" viewBox="0 0 26 26" enable-background="new 0 0 26 26" xml:space="preserve">
<g>
	<path fill="#333333" d="M20,23h-5v-1.379c5.018-0.938,8.812-5.33,8.812-10.621c0-4.439-2.672-8.246-6.496-9.912
		c-0.004,0.006-0.01,0.011-0.014,0.018C15.981,0.528,14.534,0.188,13,0.188s-2.981,0.34-4.302,0.917
		c-0.004-0.006-0.01-0.011-0.014-0.017C4.86,2.754,2.188,6.561,2.188,11c0,5.29,3.795,9.682,8.812,10.62V23H6c-0.959,0-1,1-1,1v2h6
		h4h6v-2C21,23.449,20.552,23,20,23z M16.597,1.896C15.65,2.773,14.394,3.318,13,3.318c-1.393,0-2.651-0.545-3.596-1.423
		C10.52,1.45,11.728,1.188,13,1.188S15.48,1.45,16.597,1.896z M7.687,11c0-2.936,2.376-5.312,5.313-5.312
		c2.936,0,5.312,2.377,5.312,5.313c0,2.937-2.377,5.312-5.312,5.312C10.063,16.312,7.687,13.936,7.687,11z"/>
	<path fill="#333333" d="M15.812,11.001c0-1.555-1.258-2.813-2.812-2.813c-0.535,0-1.029,0.157-1.455,0.416
		c0.133-0.041,0.271-0.068,0.416-0.068c0.788,0,1.426,0.638,1.426,1.426c0,0.787-0.638,1.426-1.426,1.426s-1.426-0.639-1.426-1.426
		c0-0.146,0.028-0.284,0.069-0.417c-0.26,0.426-0.417,0.921-0.417,1.456c0,1.555,1.258,2.813,2.813,2.813
		C14.555,13.814,15.812,12.556,15.812,11.001z"/>
</g>
</svg>
