<?xml version="1.0" encoding="utf-8"?>
<!-- Generator: Adobe Illustrator 17.0.2, SVG Export Plug-In . SVG Version: 6.00 Build 0)  -->
<!DOCTYPE svg PUBLIC "-//W3C//DTD SVG 1.1//EN" "http://www.w3.org/Graphics/SVG/1.1/DTD/svg11.dtd">
<svg version="1.1" id="Capa_1" xmlns="http://www.w3.org/2000/svg" xmlns:xlink="http://www.w3.org/1999/xlink" x="0px" y="0px"
	 width="64px" height="64px" viewBox="0 0 64 64" enable-background="new 0 0 64 64" xml:space="preserve">
<path d="M8.51,40.019c2.636,7.27,8.75,12.783,16.123,14.954c1.306,2.512,3.929,4.235,6.951,4.235s5.644-1.723,6.95-4.235
	c7.373-2.171,13.487-7.685,16.123-14.954c4.379-0.05,7.927-3.628,7.927-8.019s-3.547-7.969-7.927-8.019
	c-1.685-4.647-4.794-8.575-8.74-11.377v3.093c0,0.22-0.036,0.431-0.088,0.635c2.931,2.537,5.176,5.85,6.339,9.663l0.376,1.235
	l1.277-0.188c0.29-0.042,0.525-0.062,0.743-0.062c2.768,0,5.02,2.252,5.02,5.02s-2.252,5.02-5.02,5.02
	c-0.218,0-0.453-0.02-0.74-0.062l-1.279-0.191l-0.377,1.237c-1.912,6.269-6.744,11.181-12.758,13.509
	c0.001-0.046,0.007-0.091,0.007-0.137c0-1.487-0.424-2.874-1.147-4.06c0.725-0.781,1.147-1.702,1.147-2.702
	c0-2.881-3.44-5.137-7.833-5.137s-7.833,2.256-7.833,5.137c0,1,0.422,1.921,1.147,2.702c-0.723,1.186-1.147,2.573-1.147,4.06
	c0,0.046,0.006,0.091,0.007,0.137c-6.015-2.328-10.846-7.24-12.758-13.509l-0.377-1.237l-1.279,0.191
	C9.056,37,8.821,37.02,8.603,37.02c-2.768,0-5.019-2.252-5.019-5.02s2.251-5.02,5.019-5.02c0.217,0,0.453,0.02,0.743,0.062
	l1.277,0.188l0.376-1.235c1.28-4.198,3.876-7.781,7.251-10.397v-3.659c-4.419,2.827-7.916,7.01-9.74,12.04
	C4.131,24.031,0.584,27.609,0.584,32S4.131,39.969,8.51,40.019z M26.75,51.375c0-0.876,0.252-1.688,0.662-2.397
	c0.657-1.138,1.751-1.985,3.064-2.296c0.357-0.085,0.725-0.14,1.108-0.14s0.751,0.056,1.108,0.14
	c1.312,0.31,2.406,1.158,3.063,2.296c0.409,0.709,0.662,1.521,0.662,2.397c0,0.375-0.052,0.735-0.134,1.086
	c-0.378,1.633-1.584,2.935-3.151,3.47c-0.489,0.167-1.004,0.278-1.549,0.278s-1.06-0.111-1.549-0.278
	c-1.567-0.535-2.774-1.838-3.151-3.47C26.803,52.11,26.75,51.75,26.75,51.375z M31.584,42.476c2.905,0,4.833,1.286,4.833,2.137
	c0,0.146-0.076,0.307-0.186,0.47c-1.302-0.964-2.906-1.542-4.647-1.542c-1.741,0-3.346,0.578-4.648,1.542
	c-0.109-0.163-0.186-0.324-0.186-0.471C26.75,43.762,28.678,42.476,31.584,42.476z"/>
<path d="M25.25,34.958c2.579,0,2.579-4,0-4S22.671,34.958,25.25,34.958z"/>
<path d="M37.917,34.708c2.579,0,2.579-4,0-4S35.338,34.708,37.917,34.708z"/>
<path d="M23.417,20.667h0.333l0.302-0.141c2.751-1.286,4.666-2.289,6.017-3.093c0.622,0.255,1.301,0.401,2.014,0.401
	c0.713,0,1.392-0.146,2.014-0.401c1.352,0.804,3.267,1.807,6.017,3.093l0.302,0.141h0.333c1.581,0,2.905-1.061,3.338-2.503
	c0.095-0.318,0.162-0.648,0.162-0.997v-2.075v-3.577v-3.68c0-1.93-1.57-3.5-3.5-3.5h-0.333l-0.302,0.141
	c-1.685,0.787-3.055,1.469-4.179,2.065c-0.711,0.377-1.315,0.717-1.838,1.028c-0.464-0.19-0.966-0.296-1.485-0.348
	c-0.177-0.018-0.348-0.053-0.529-0.053c-0.181,0-0.353,0.036-0.529,0.054c-0.519,0.052-1.021,0.157-1.485,0.348
	c-0.524-0.312-1.127-0.651-1.838-1.028c-1.124-0.596-2.494-1.277-4.179-2.065L23.75,4.333h-0.333c-1.93,0-3.5,1.57-3.5,3.5v3.13
	v3.457v2.746c0,0.349,0.067,0.679,0.162,0.997C20.512,19.606,21.836,20.667,23.417,20.667z M31.651,10.21
	c0.141-0.026,0.284-0.044,0.432-0.044c0.148,0,0.292,0.017,0.432,0.044c0.257,0.048,0.495,0.145,0.715,0.27
	c0.299,0.17,0.558,0.399,0.756,0.678c0.012,0.016,0.025,0.031,0.037,0.048c0.248,0.371,0.393,0.815,0.393,1.293
	c0,0.332-0.072,0.647-0.198,0.934c-0.055,0.126-0.12,0.247-0.195,0.36c-0.163,0.244-0.372,0.454-0.613,0.622
	c-0.057,0.039-0.119,0.07-0.18,0.104c-0.34,0.194-0.728,0.314-1.147,0.314c-0.419,0-0.807-0.12-1.148-0.314
	c-0.06-0.034-0.122-0.065-0.179-0.104c-0.241-0.168-0.45-0.378-0.613-0.622c-0.076-0.113-0.14-0.234-0.195-0.359
	c-0.126-0.286-0.198-0.602-0.198-0.934c0-0.478,0.146-0.923,0.394-1.294c0.035-0.052,0.078-0.096,0.116-0.144
	c0.186-0.235,0.414-0.432,0.676-0.581C31.156,10.355,31.394,10.259,31.651,10.21z M40.974,7.386
	c0.164,0.083,0.276,0.252,0.276,0.447V10v3.293v3.873c0,0.04-0.023,0.072-0.031,0.109c-0.035,0.145-0.115,0.273-0.245,0.338
	c-1.502-0.713-3.09-1.524-4.406-2.25c0.081-0.126,0.145-0.263,0.215-0.396c0.391-0.741,0.634-1.573,0.634-2.468
	c0-0.238-0.04-0.465-0.07-0.694c-0.065-0.493-0.177-0.971-0.367-1.412c-0.115-0.266-0.257-0.516-0.411-0.757
	c0.149-0.083,0.305-0.166,0.461-0.251c0.311-0.168,0.629-0.338,0.96-0.51C38.955,8.371,39.982,7.857,40.974,7.386z M22.917,9.602
	V7.833c0-0.195,0.113-0.365,0.276-0.447c0.874,0.415,1.773,0.863,2.637,1.309c0.452,0.234,0.89,0.464,1.309,0.691
	c0.156,0.084,0.311,0.168,0.461,0.251c-0.155,0.241-0.297,0.491-0.411,0.757c-0.158,0.365-0.268,0.752-0.341,1.153
	c-0.056,0.31-0.096,0.627-0.096,0.953c0,0.895,0.243,1.726,0.634,2.468c0.07,0.133,0.134,0.269,0.215,0.395
	c-1.316,0.726-2.904,1.538-4.406,2.251c-0.13-0.066-0.21-0.193-0.245-0.338c-0.009-0.037-0.031-0.069-0.031-0.109v-4.34V9.602z"/>
</svg>
