<?xml version="1.0" encoding="utf-8"?>
<!-- Generator: Adobe Illustrator 16.0.4, SVG Export Plug-In . SVG Version: 6.00 Build 0)  -->
<!DOCTYPE svg PUBLIC "-//W3C//DTD SVG 1.1//EN" "http://www.w3.org/Graphics/SVG/1.1/DTD/svg11.dtd">
<svg version="1.1" id="Capa_1" xmlns="http://www.w3.org/2000/svg" xmlns:xlink="http://www.w3.org/1999/xlink" x="0px" y="0px"
	 width="18.125px" height="18.514px" viewBox="0 0 18.125 18.514" enable-background="new 0 0 18.125 18.514" xml:space="preserve">
<path d="M16.645,14.61c0,0,1.459-0.145,1.479-0.812s-1.666-0.978-2.062-1.146c-0.395-0.167-0.5-0.249-0.5-0.249
	s0.02-0.25-0.104-0.417c-0.127-0.167-0.104-0.646-0.104-0.646s0.146-0.043,0.582-0.271c0.438-0.229,0.875-0.417,0.897-0.896
	c0.02-0.479-0.709-0.958-1.584-1.208s-1.854-0.459-1.854-0.459s-0.292-0.228-0.25-0.437c0.042-0.208,0.083-0.396,0.083-0.396
	s1.499-0.479,1.521-1.481c0.021-0.998-0.98-1.187-2.043-1.539c-1.063-0.355-1.479-0.606-2-0.98c-0.52-0.374-0.854-0.75-0.854-0.75
	s0.084-0.418-0.021-0.666C9.728,2.006,9.477,1.88,9.477,1.88l-0.02-0.331c0,0,0.167-0.061,0.104-0.167
	c-0.007-0.01-0.011-0.02-0.015-0.03c0.191-0.135,0.316-0.357,0.316-0.608C9.863,0.333,9.531,0,9.122,0
	C8.712,0,8.38,0.333,8.38,0.743c0,0.207,0.083,0.393,0.219,0.527c-0.021,0.048-0.03,0.107,0.026,0.152
	c0.102,0.085,0.102,0.438,0.102,0.438S8.333,2.008,8.313,2.382c-0.022,0.375,0.02,0.542,0.02,0.542S7.311,4.174,6.02,4.631
	C4.728,5.09,3.832,5.195,3.542,5.902C3.249,6.61,3.874,7.05,4.145,7.216c0.272,0.166,0.812,0.521,0.812,0.521L4.915,8.342
	c0,0-0.228,0.165-0.437,0.248c-0.208,0.083-2.146,0.479-2.771,1c-0.624,0.522-0.331,1.016,0.021,1.25
	c0.353,0.235,1.166,0.605,1.209,0.688c0.041,0.085-0.043,0.708-0.043,0.708s-1.144,0.437-1.832,0.688
	C0.375,13.174,0,13.361,0,13.838c0,0.481,0.729,0.668,1,0.732c0.271,0.062,0.5,0.062,0.5,0.062v2.471H0.2v1.411h17.86v-1.411h-1.416
	L16.645,14.61L16.645,14.61z M10.183,6.683c1.324,0.141,2.211,0.536,2.595,0.74v0.643c-0.396-0.146-1.313-0.439-2.595-0.562V6.683z
	 M8.644,0.777c0-0.166,0.135-0.302,0.304-0.302c0.165,0,0.302,0.137,0.302,0.302c0,0.168-0.137,0.303-0.302,0.303
	C8.779,1.08,8.644,0.945,8.644,0.777z M5.28,7.542c0.399-0.247,1.421-0.76,3.115-0.886v0.806C6.959,7.562,5.733,8.01,5.28,8.195
	V7.542z M3.306,11.16c0.536-0.275,2.647-1.202,6.525-1.133c2.812,0.051,4.604,0.84,5.164,1.127v0.867
	c-0.64-0.291-2.895-1.198-6.081-1.181c-2.656,0.017-5.022,0.896-5.609,1.129V11.16z M2.128,14.525c0,0,2.602-1.655,7.149-1.572
	c4.131,0.076,6.857,1.572,6.857,1.572v2.562h-4.572v-2.434h-1.021v2.434H9.988v-2.434H8.51v2.434H7.957v-2.434h-1.02v2.434h-4.85
	L2.128,14.525z"/>
</svg>
