<?xml version="1.0" encoding="utf-8"?>
<!-- Generator: Adobe Illustrator 16.0.4, SVG Export Plug-In . SVG Version: 6.00 Build 0)  -->
<!DOCTYPE svg PUBLIC "-//W3C//DTD SVG 1.1//EN" "http://www.w3.org/Graphics/SVG/1.1/DTD/svg11.dtd">
<svg version="1.1" id="Layer_1" xmlns="http://www.w3.org/2000/svg" xmlns:xlink="http://www.w3.org/1999/xlink" x="0px" y="0px"
	 width="26px" height="26px" viewBox="0 0 26 26" enable-background="new 0 0 26 26" xml:space="preserve">
<path fill="#333333" d="M26,15.994c0,0-0.458-0.994-1.662-0.994c-3.523,0-2.27,4-5.333,4c-0.87,0-3.322,0-6.005,0v-2h7c0,0,2-2,2-6
	s-2-7-2-7h-7V2.02C16.567,2.154,16.123,3,18,3c2.038,0,3.945-2,3.945-2s-0.875,0.673-2.932,0.673c-2.336,0-2.449-1.525-6.448-1.66
	C12.543,0.01,12.523,0,12.5,0c-0.019,0-0.034,0.008-0.052,0.01C12.3,0.006,12.159,0,12,0v0.5V2v2H5c0,0,1.517,2.797,1,7
	c-0.489,3.971-2.483,6-2.483,6H12v2c-3.194,0-6.479,0-7.672,0C1.994,19,2,17,2,17s-2,1.792-2,4.5c0,3,2.375,4.5,4.5,4.5
	c2,0,14.5,0,16.5,0s5-1,5-4c0-2.002-2-2.745-2-4.5C24,16.723,24.436,15.994,26,15.994z"/>
</svg>
