<?xml version="1.0" encoding="utf-8"?>
<!-- Generator: Adobe Illustrator 16.0.4, SVG Export Plug-In . SVG Version: 6.00 Build 0)  -->
<!DOCTYPE svg PUBLIC "-//W3C//DTD SVG 1.1//EN" "http://www.w3.org/Graphics/SVG/1.1/DTD/svg11.dtd">
<svg version="1.1" id="Layer_1" xmlns="http://www.w3.org/2000/svg" xmlns:xlink="http://www.w3.org/1999/xlink" x="0px" y="0px"
	 width="26px" height="26px" viewBox="0 0 26 26" enable-background="new 0 0 26 26" xml:space="preserve">
<path fill="#333333" d="M17,4.188c-0.997,0-1.952,0.174-2.846,0.479c1.066,0.662,1.994,1.52,2.736,2.527
	C16.928,7.192,16.963,7.188,17,7.188c3.205,0,5.812,2.607,5.812,5.813S20.205,18.812,17,18.812S11.188,16.205,11.188,13
	c0-1.295,0.431-2.487,1.149-3.455c-0.732-0.707-1.689-1.167-2.75-1.298C8.705,9.619,8.188,11.248,8.188,13
	c0,4.867,3.945,8.812,8.813,8.812s8.813-3.944,8.813-8.812S21.867,4.188,17,4.188z"/>
<path fill="#333333" d="M9,21.812c0.997,0,1.952-0.174,2.846-0.479c-1.066-0.662-1.994-1.52-2.737-2.527
	C9.072,18.809,9.037,18.812,9,18.812c-3.205,0-5.813-2.606-5.813-5.812S5.795,7.188,9,7.188S14.812,9.795,14.812,13
	c0,1.295-0.431,2.486-1.148,3.455c0.732,0.707,1.689,1.167,2.75,1.298c0.882-1.372,1.398-3.001,1.398-4.753
	c0-4.867-3.944-8.813-8.812-8.813S0.188,8.133,0.188,13S4.133,21.812,9,21.812z"/>
</svg>
