<?xml version="1.0" encoding="utf-8"?>
<!-- Generator: Adobe Illustrator 16.0.4, SVG Export Plug-In . SVG Version: 6.00 Build 0)  -->
<!DOCTYPE svg PUBLIC "-//W3C//DTD SVG 1.1//EN" "http://www.w3.org/Graphics/SVG/1.1/DTD/svg11.dtd">
<svg version="1.1" id="Layer_1" xmlns="http://www.w3.org/2000/svg" xmlns:xlink="http://www.w3.org/1999/xlink" x="0px" y="0px"
	 width="26px" height="26px" viewBox="0 0 26 26" enable-background="new 0 0 26 26" xml:space="preserve">
<path fill="#333333" d="M20.402,12.236c0.484-0.611,0.913-1.279,1.274-1.999c0.001-0.002,0.002-0.004,0.004-0.006
	c0.11-0.221,0.211-0.448,0.309-0.677c0.025-0.06,0.051-0.12,0.075-0.18c0.092-0.226,0.177-0.454,0.256-0.687
	c0.02-0.056,0.036-0.113,0.055-0.17c0.254-0.788,0.436-1.614,0.532-2.472C22.909,6.03,22.912,6.015,22.914,6h-0.001
	C22.965,5.531,23,5.056,23,4.571C23,2.945,22.698,1.4,22.162,0H3.838C3.302,1.4,3,2.945,3,4.571C3,9.221,5.435,13.215,8.923,15
	H8.906c0,0,3.094,1.458,3.094,3.5c0,1.828,0,2.844,0,3.5c0,2-5.984,3.016-4.787,4h11.575C19.984,25.047,14,24,14,22
	c0-0.67,0-1.678,0-3.5c0-2.042,3.094-3.5,3.094-3.5h-0.017c0.019-0.01,0.036-0.021,0.056-0.03c0.089-0.047,0.177-0.097,0.265-0.146
	c0.172-0.097,0.343-0.193,0.51-0.301c0.029-0.019,0.057-0.041,0.086-0.06c0.388-0.257,0.759-0.542,1.111-0.854
	c0.033-0.029,0.068-0.057,0.101-0.087c0.16-0.145,0.312-0.297,0.464-0.453c0.057-0.059,0.114-0.117,0.17-0.177
	c0.146-0.158,0.289-0.32,0.428-0.487C20.312,12.35,20.356,12.292,20.402,12.236z M5,4.571C5,3.694,5.103,2.834,5.305,2h15.388
	C20.896,2.834,21,3.694,21,4.571C21,5.058,20.959,5.533,20.898,6H7.086c0.344,3.137,1.802,5.872,3.903,7.687
	C7.55,12.631,5,8.951,5,4.571z"/>
</svg>
